# xmcd
#
# Track frame offsets:
#	150
#	15047
#	28054
#	41102
#	53916
#	67422
#	82948
#	92675
#	106156
#	117264
#	126892
#	142607
#	158000
#	169145
#	183609
#
# Disc length: 2680 seconds
#
# Revision: 1
# Processed by: cddbd v1.5.2PL0 Copyright (c) Steve Scherf et al.
# Submitted via: audiograbber 1.83.01
#
DISCID=bd0a760f
DTITLE=Die Notendealer - DEALIRIUM
DYEAR=2012
DGENRE=A Cappella
TTITLE0=DELIRIUM
TTITLE1=WAKE ME UP
TTITLE2=ANDREA
TTITLE3=WENN ICH EIN COWBOY WÄR'
TTITLE4=WHAT A WONDERFUL WORLD
TTITLE5=HERZ AUS SILBER
TTITLE6=KATJUSCHA
TTITLE7=INFORMER
TTITLE8=TIMMI DIE ROBBE
TTITLE9=AMAZING GRACE
TTITLE10=GEH DAVON AUS
TTITLE11=LAMBADABAR
TTITLE12=BEINHART
TTITLE13=IF YOU DONT KNOW ME BY NOW
TTITLE14=SKY AND SAND
EXTD=
EXTT0=
EXTT1=
EXTT2=
EXTT3=
EXTT4=
EXTT5=
EXTT6=
EXTT7=
EXTT8=
EXTT9=
EXTT10=
EXTT11=
EXTT12=
EXTT13=
EXTT14=
PLAYORDER=
